#!OML:ASF I:\Actors\actors\Patient Classification 1\Patient 1\Session 1\Subject1.ASF
:FULLY-SPECIFIED
:DEGREES
850
root -0.249828 17.9049 7.11402 20.5428 3.53717 -8.27885
lowerback 16.6319 0.145161 6.10146
upperback -1.13947 1.7103 2.74733
thorax -10.5495 0.556284 -0.889044
lowerneck -23.9095 -4.77459 -3.30524
upperneck 5.5616 -6.5261 9.30294
head 5.92395 -2.48367 2.76942
rclavicle -5.31749e-015 -1.57537e-014
rhumerus 88.9668 -33.5146 -109.963
rradius 15.7206
rwrist 88.4624
rhand 8.16444 -24.0705
rfingers 7.12502
rthumb 33.3834 -50.989
lclavicle -5.31749e-015 -1.57537e-014
lhumerus 91.6107 28.0612 126.731
lradius 11.2799
lwrist -103.894
lhand -24.0113 -28.0123
lfingers 7.12502
lthumb 2.46647 1.95314
rfemur -19.5798 31.2966 16.2586
rtibia 0.136967
rfoot -9.30714 -34.7278
rtoes 10.5786
lfemur 159.282 227.065 186.143
ltibia -3.32584
lfoot 348.107 -306.883
ltoes 6.67763
851
root -0.247012 17.9016 7.12679 20.4677 3.45304 -8.25884
lowerback 16.6101 0.141983 6.10362
upperback -1.22008 1.70721 2.72189
thorax -10.6266 0.550657 -0.916536
lowerneck -23.9655 -4.77968 -3.51485
upperneck 5.8173 -6.50738 9.43421
head 6.02641 -2.45995 2.8466
rclavicle 8.29926e-015 2.2413e-014
rhumerus 83.8994 -35.9604 -101.254
rradius 16.1629
rwrist 81.626
rhand 8.87763 -24.9095
rfingers 7.12502
rthumb 34.061 -51.6797
lclavicle 8.29926e-015 2.2413e-014
lhumerus 92.5653 29.8908 126.616
lradius 11.2656
lwrist -104.151
lhand -24.221 -28.0294
lfingers 7.12502
lthumb 2.26388 1.93837
rfemur -19.4301 31.2714 16.3264
rtibia 0.156332
rfoot -9.32995 -34.6433
rtoes 10.4714
lfemur 159.565 227.009 185.865
ltibia -3.35042
lfoot 348.065 -306.935
ltoes 6.7119
852
root -0.245172 17.8979 7.13997 20.3629 3.37563 -8.26074
lowerback 16.5876 0.141066 6.12091
upperback -1.30404 1.71097 2.70258
thorax -10.7066 0.547455 -0.947532
lowerneck -23.9798 -4.75939 -3.62725
upperneck 6.05936 -6.46836 9.45184
head 6.10851 -2.4352 2.87461
rclavicle -1.84124e-014 -1.18774e-014
rhumerus 83.8428 -37.8824 -101.449
rradius 16.198
rwrist 82.1174
rhand 8.78088 -24.7101
rfingers 7.12502
rthumb 33.9691 -51.5007
lclavicle -1.84124e-014 -1.18774e-014
lhumerus 93.2386 31.7825 126.077
lradius 11.2425
lwrist -103.948
lhand -24.4632 -28.0816
lfingers 7.12502
lthumb 2.02996 1.88847
rfemur -19.247 31.2319 16.4527
rtibia 0.190008
rfoot -9.35011 -34.5445
rtoes 10.3431
lfemur 159.908 226.892 185.557
ltibia -3.38071
lfoot 348.086 -307.049
ltoes 6.68149
853
root -0.244123 17.8939 7.15378 20.2372 3.30503 -8.2762
lowerback 16.5576 0.139644 6.14229
upperback -1.39501 1.71551 2.69069
thorax -10.7905 0.544409 -0.972785
lowerneck -23.9581 -4.72066 -3.67693
upperneck 6.28876 -6.41228 9.39019
head 6.1743 -2.40884 2.86942
rclavicle 6.85807e-015 1.12562e-014
rhumerus 81.7499 -39.7899 -98.8466
rradius 16.5422
rwrist 80.4208
rhand 8.86457 -24.698
rfingers 7.12502
rthumb 34.0486 -51.471
lclavicle 6.85807e-015 1.12562e-014
lhumerus 93.4835 33.7702 124.917
lradius 11.225
lwrist -103.021
lhand -24.6407 -28.1653
lfingers 7.12502
lthumb 1.85857 1.80637
rfemur -19.0334 31.1756 16.6205
rtibia 0.225005
rfoot -9.36846 -34.4313
rtoes 10.1981
lfemur 160.295 226.727 185.224
ltibia -3.41453
lfoot 348.171 -307.215
ltoes 6.56551
854
root -0.243342 17.8892 7.16824 20.0888 3.25405 -8.32063
lowerback 16.5228 0.130449 6.19237
upperback -1.49311 1.71682 2.69014
thorax -10.8797 0.538257 -1.00082
lowerneck -23.9342 -4.68322 -3.73278
upperneck 6.53837 -6.35657 9.32194
head 6.24629 -2.38312 2.86306
rclavicle -3.75206e-015 -1.41386e-014
rhumerus 78.6483 -41.5324 -94.9756
rradius 16.9945
rwrist 77.8513
rhand 9.07198 -24.6891
rfingers 7.12502
rthumb 34.2456 -51.418
lclavicle -3.75206e-015 -1.41386e-014
lhumerus 93.2101 35.8546 123.074
lradius 11.2227
lwrist -101.328
lhand -24.7062 -28.2581
lfingers 7.12502
lthumb 1.79528 1.71405
rfemur -18.7771 31.0924 16.8527
rtibia 0.249581
rfoot -9.38788 -34.2961
rtoes 10.0288
lfemur 160.728 226.491 184.877
ltibia -3.45325
lfoot 348.351 -307.458
ltoes 6.32509
855
root -0.242454 17.8836 7.18327 19.9155 3.23562 -8.40374
lowerback 16.4874 0.107854 6.29629
upperback -1.60075 1.71258 2.69642
thorax -10.9788 0.525992 -1.05011
lowerneck -23.9209 -4.65765 -3.81196
upperneck 6.83168 -6.31658 9.2811
head 6.33722 -2.36207 2.8673
rclavicle 7.4917e-015 1.44367e-014
rhumerus 74.9688 -43.0476 -90.6518
rradius 17.5512
rwrist 75.0873
rhand 9.27959 -24.6012
rfingers 7.12502
rthumb 34.4427 -51.2856
lclavicle 7.4917e-015 1.44367e-014
lhumerus 92.2764 38.0142 120.408
lradius 11.238
lwrist -98.8501
lhand -24.6319 -28.284
lfingers 7.12502
lthumb 1.86712 1.68758
rfemur -18.4701 30.9837 17.161
rtibia 0.255422
rfoot -9.40769 -34.1439
rtoes 9.82502
lfemur 161.204 226.156 184.524
ltibia -3.49408
lfoot 348.633 -307.814
ltoes 5.9578
856
root -0.24174 17.8773 7.19917 19.7328 3.23442 -8.48376
lowerback 16.4377 0.0795652 6.40827
upperback -1.72309 1.70095 2.69185
thorax -11.0864 0.508733 -1.11364
lowerneck -23.9081 -4.64698 -3.89697
upperneck 7.16673 -6.30163 9.26592
head 6.44502 -2.35016 2.87767
rclavicle 2.36678e-015 1.60022e-014
rhumerus 70.3618 -44.2201 -85.3769
rradius 18.2226
rwrist 71.7871
rhand 9.5268 -24.5613
rfingers 7.12502
rthumb 34.6774 -51.192
lclavicle 2.36678e-015 1.60022e-014
lhumerus 90.621 40.1851 116.93
lradius 11.2773
lwrist -95.7169
lhand -24.4178 -28.208
lfingers 7.12502
lthumb 2.0739 1.76162
rfemur -18.1336 30.86 17.4781
rtibia 0.242707
rfoot -9.43182 -33.9822
rtoes 9.59008
lfemur 161.69 225.765 184.15
ltibia -3.52706
lfoot 348.937 -308.244
ltoes 5.56477
857
root -0.241478 17.8707 7.21612 19.5487 3.2278 -8.52601
lowerback 16.3645 0.0552613 6.48059
upperback -1.86064 1.68285 2.66367
thorax -11.1982 0.489461 -1.17879
lowerneck -23.879 -4.64991 -3.96635
upperneck 7.52529 -6.31384 9.26356
head 6.56018 -2.34976 2.88643
rclavicle -1.16848e-014 9.19379e-015
rhumerus 65.0955 -44.9744 -79.5341
rradius 18.9892
rwrist 68.228
rhand 9.79732 -24.5953
rfingers 7.12502
rthumb 34.9341 -51.1668
lclavicle -1.16848e-014 9.19379e-015
lhumerus 85.6838 42.427 109.247
lradius 11.7618
lwrist -89.541
lhand -23.8759 -27.8874
lfingers 7.12502
lthumb 2.5972 2.07655
rfemur -17.7837 30.7293 17.7521
rtibia 0.219546
rfoot -9.46487 -33.8093
rtoes 9.33483
lfemur 162.171 225.397 183.741
ltibia -3.55015
lfoot 349.159 -308.666
ltoes 5.26609
858
root -0.241946 17.8639 7.23407 19.3615 3.19924 -8.51673
lowerback 16.2693 0.0372653 6.4856
upperback -2.01095 1.65517 2.6078
thorax -11.3128 0.468443 -1.2338
lowerneck -23.8202 -4.65788 -4.00266
upperneck 7.89494 -6.34454 9.25996
head 6.67489 -2.35795 2.88738
rclavicle 1.2188e-014 1.83752e-014
rhumerus 59.3519 -45.2322 -73.35
rradius 19.8483
rwrist 64.5205
rhand 10.0835 -24.715
rfingers 7.12502
rthumb 35.2056 -51.2228
lclavicle 1.2188e-014 1.83752e-014
lhumerus 80.4237 44.1917 101.69
lradius 12.3019
lwrist -83.8314
lhand -23.3015 -27.4693
lfingers 7.12502
lthumb 3.1519 2.48719
rfemur -17.4277 30.604 17.9635
rtibia 0.198729
rfoot -9.51417 -33.6281
rtoes 9.08041
lfemur 162.652 225.116 183.292
ltibia -3.56686
lfoot 349.24 -309.012
ltoes 5.13427
859
root -0.243497 17.8573 7.25281 19.1731 3.13992 -8.45277
lowerback 16.1527 0.0253709 6.40847
upperback -2.17091 1.61485 2.52772
thorax -11.4275 0.445611 -1.26581
lowerneck -23.7347 -4.663 -4.00733
upperneck 8.27076 -6.38132 9.24879
head 6.78682 -2.36929 2.88024
rclavicle 3.83903e-015 -2.62396e-014
rhumerus 53.4498 -44.9815 -67.196
rradius 20.7935
rwrist 60.8713
rhand 10.3725 -24.8796
rfingers 7.12502
rthumb 35.4795 -51.3224
lclavicle 3.83903e-015 -2.62396e-014
lhumerus 74.9432 45.5119 94.2882
lradius 12.9027
lwrist -78.6169
lhand -22.7025 -26.9995
lfingers 7.12502
lthumb 3.73043 2.94758
rfemur -17.0776 30.4853 18.1061
rtibia 0.192224
rfoot -9.58242 -33.4374
rtoes 8.84847
lfemur 163.132 224.952 182.805
ltibia -3.58182
lfoot 349.176 -309.248
ltoes 5.17329
